<?xml version="1.0" standalone="no"?>
<!DOCTYPE svg PUBLIC "-//W3C//DTD SVG 20010904//EN"
 "http://www.w3.org/TR/2001/REC-SVG-20010904/DTD/svg10.dtd">
<svg version="1.0" xmlns="http://www.w3.org/2000/svg"
 width="128.000000pt" height="128.000000pt" viewBox="0 0 128.000000 128.000000"
 preserveAspectRatio="xMidYMid meet">
<metadata>
Created by potrace 1.14, written by Peter Selinger 2001-2017
</metadata>
<g transform="translate(0.000000,128.000000) scale(0.100000,-0.100000)"
fill="#000000" stroke="none">
<path d="M400 1115 l-95 -33 -3 -346 c-1 -209 1 -346 7 -346 5 0 44 -20 85
-45 42 -25 78 -45 80 -45 2 0 50 -27 105 -60 56 -33 103 -60 106 -60 2 0 27
-14 56 -30 53 -32 83 -33 91 -2 6 22 108 57 108 37 0 -8 7 -11 20 -8 20 5 20
14 20 353 l0 347 -132 76 c-165 93 -201 113 -258 145 -25 14 -54 31 -65 38
-24 17 -11 19 -125 -21z m207 -75 c58 -33 107 -60 109 -60 2 0 32 -17 66 -38
35 -21 70 -41 78 -45 8 -4 29 -15 45 -25 l30 -19 2 -304 3 -305 -48 -17 c-26
-9 -50 -17 -53 -17 -3 0 -6 138 -6 306 1 274 -1 308 -16 318 -9 6 -104 60
-212 121 -107 60 -195 113 -195 116 0 6 55 26 78 28 7 1 60 -26 119 -59z"/>
</g>
</svg>
